<svg width="13" height="10" viewBox="0 0 13 10" fill="none" xmlns="http://www.w3.org/2000/svg">
  <path
    fill-rule="evenodd"
    clip-rule="evenodd"
    d="M5.19867 9.8473C5.10323 9.94563 4.97968 10 4.85164 10C4.7236 10 4.60005 9.94563 4.50462 9.8473L4.33111 9.69738L4.18652 9.51415L3.46355 8.76457L0.13792 5.31649C0.0944922 5.2712 0.0597825 5.21594 0.0360277 5.15426C0.0122729 5.09257 0 5.02584 0 4.95836C0 4.89087 0.0122729 4.82414 0.0360277 4.76246C0.0597825 4.70077 0.0944922 4.64551 0.13792 4.60022L1.17899 3.51749C1.27442 3.41916 1.39797 3.36479 1.52601 3.36479C1.65405 3.36479 1.7776 3.41916 1.87303 3.51749L4.85164 6.66574L11.127 0.152701C11.2224 0.0543651 11.346 0 11.474 0C11.602 0 11.7256 0.0543651 11.821 0.152701L12.8621 1.23543C12.9055 1.28072 12.9402 1.33598 12.964 1.39767C12.9877 1.45935 13 1.52608 13 1.59357C13 1.66105 12.9877 1.72778 12.964 1.78946C12.9402 1.85115 12.9055 1.90641 12.8621 1.9517L5.19867 9.8473Z"
    fill="white"
  />
</svg>
